<svg xmlns="http://www.w3.org/2000/svg" width="912" height="661" viewBox="0 0 912 661" version="1.1"><path d="M 772.604 38.208 C 762.397 44.213, 762.439 58.657, 772.680 64.659 C 776.262 66.757, 777.966 67.151, 781.664 66.734 C 790.090 65.785, 795.429 59.876, 795.429 51.500 C 795.429 42.959, 789.926 37.036, 781.324 36.319 C 777.595 36.008, 775.616 36.436, 772.604 38.208" stroke="none" fill="#fcf9f9" fill-rule="evenodd"/><path d="M 782.539 1.047 C 765.559 3.708, 752.810 10.051, 741.347 21.544 C 734.880 28.028, 732.361 31.453, 729.165 38.109 C 723.406 50.104, 721.949 56.488, 721.317 72.500 C 720.632 89.833, 721.622 94.526, 726.381 96.515 C 733.441 99.465, 746.880 100.292, 779.500 99.785 C 797.100 99.511, 812.850 99.560, 814.500 99.894 C 817.103 100.420, 818.118 101.739, 822.167 109.850 C 829.296 124.133, 830.506 130.202, 830.470 151.500 C 830.442 167.663, 830.165 170.594, 827.747 180.217 C 819.173 214.343, 798.999 248.326, 770.586 276.500 C 735.182 311.606, 698.981 326.643, 658.673 322.985 C 651.978 322.377, 635.250 319.683, 621.500 316.998 C 607.750 314.312, 592.506 311.589, 587.624 310.947 C 575.808 309.392, 546.902 310.262, 537 312.471 C 503.454 319.954, 469.393 340.022, 431.446 374.660 C 413.869 390.703, 401.553 404.769, 377.735 436 C 342.660 481.992, 328.198 499.797, 305.296 525.181 C 241.360 596.048, 183.079 621.028, 114.663 606.887 C 100.416 603.943, 86.064 599.058, 74.437 593.196 C 55.408 583.602, 43.675 573.741, 22.450 549.500 C 8.396 533.448, 1.330 526.337, 0.379 527.287 C -0.664 528.330, 2.855 544.431, 6.196 553.900 C 12.734 572.433, 22.468 588.183, 36.376 602.734 C 65.131 632.817, 104.077 651.670, 151.942 658.675 C 166.085 660.746, 200.827 661.002, 215.500 659.144 C 238.740 656.202, 264.482 649.583, 287 640.760 C 305.440 633.535, 415.804 580.043, 433.041 569.976 C 436.786 567.789, 440.052 566, 440.301 566 C 440.550 566, 441.086 585.125, 441.494 608.500 L 442.235 651 475.035 651 L 507.834 651 507.667 605.250 C 507.466 550.148, 508.342 540.877, 515.017 527.500 C 522.540 512.424, 534.712 501.762, 550.500 496.419 C 564.913 491.540, 584.050 492.922, 599.576 499.962 C 612.200 505.686, 623.542 515.314, 630.249 526 C 637.662 537.810, 638.678 542.832, 644.505 596.500 C 646.476 614.650, 648.743 634.191, 649.544 639.924 C 650.345 645.657, 651 650.495, 651 650.674 C 651 650.853, 663.375 651, 678.500 651 L 706 651 706.168 639.250 C 706.260 632.788, 706.372 599.150, 706.418 564.500 C 706.490 508.778, 706.710 500.179, 708.314 490.067 C 714.767 449.414, 730.613 415.275, 753.832 392.006 C 759.149 386.677, 777 371.123, 793.500 357.443 C 837.823 320.693, 858.984 299.299, 875.537 274.500 C 910.335 222.370, 921.089 148.072, 902.315 89.500 C 888.060 45.028, 857.101 13.267, 818.451 3.462 C 807.664 0.726, 791.516 -0.360, 782.539 1.047 M 772.604 38.208 C 762.397 44.213, 762.439 58.657, 772.680 64.659 C 776.262 66.757, 777.966 67.151, 781.664 66.734 C 790.090 65.785, 795.429 59.876, 795.429 51.500 C 795.429 42.959, 789.926 37.036, 781.324 36.319 C 777.595 36.008, 775.616 36.436, 772.604 38.208" stroke="none" fill="#fc645b" fill-rule="evenodd"/></svg>