<?xml version="1.0" encoding="UTF-8"?>
<svg xmlns="http://www.w3.org/2000/svg" xmlns:xlink="http://www.w3.org/1999/xlink" width="48px" height="48px" viewBox="0 0 48 48" version="1.1">
<g id="surface1">
<path style=" stroke:none;fill-rule:nonzero;fill:rgb(100%,100%,100%);fill-opacity:1;" d="M 24 4.050781 C 12.980469 4.050781 4.050781 12.980469 4.050781 24 C 4.050781 35.019531 12.980469 43.949219 24 43.949219 C 35.019531 43.949219 43.949219 35.019531 43.949219 24 C 43.949219 12.980469 35.019531 4.050781 24 4.050781 Z M 24 4.050781 "/>
<path style=" stroke:none;fill-rule:nonzero;fill:rgb(0.392157%,34.117648%,60.784316%);fill-opacity:1;" d="M 8 24 C 8 30.335938 11.679688 35.804688 17.019531 38.398438 L 9.386719 17.488281 C 8.496094 19.480469 8 21.675781 8 24 Z M 34.804688 23.195312 C 34.804688 21.21875 33.742188 19.84375 33.132812 18.78125 C 32.320312 17.453125 31.558594 16.34375 31.558594 15.03125 C 31.558594 13.566406 33.027344 12.191406 34.597656 12.191406 C 34.671875 12.191406 34.734375 12.195312 34.804688 12.199219 C 31.960938 9.585938 28.167969 8 24 8 C 18.613281 8 13.847656 10.664062 10.949219 14.75 C 11.175781 14.824219 11.257812 14.789062 11.558594 14.789062 C 13.230469 14.789062 15.824219 14.589844 15.824219 14.589844 C 16.683594 14.53125 16.789062 15.800781 15.921875 15.902344 C 15.921875 15.902344 15.058594 16.007812 14.09375 16.054688 L 20.027344 33.835938 L 23.527344 23.332031 L 20.921875 16.085938 C 20.0625 16.039062 19.242188 15.933594 19.242188 15.933594 C 18.382812 15.878906 18.480469 14.558594 19.34375 14.617188 C 19.34375 14.617188 21.988281 14.816406 23.558594 14.816406 C 25.234375 14.816406 27.824219 14.617188 27.824219 14.617188 C 28.683594 14.558594 28.789062 15.828125 27.925781 15.933594 C 27.925781 15.933594 27.058594 16.039062 26.09375 16.085938 L 31.984375 33.695312 L 33.585938 28.367188 C 34.398438 26.289062 34.804688 24.570312 34.804688 23.195312 Z M 24.28125 25.394531 L 19.480469 39.347656 C 20.917969 39.773438 22.429688 40 24 40 C 25.863281 40 27.648438 39.675781 29.316406 39.09375 C 29.277344 39.023438 29.230469 38.949219 29.199219 38.871094 Z M 38.042969 16.316406 C 38.113281 16.828125 38.152344 17.378906 38.152344 17.964844 C 38.152344 19.589844 37.84375 21.414062 36.933594 23.699219 L 32.046875 37.835938 C 36.804688 35.0625 40 29.902344 40 24 C 40 21.21875 39.289062 18.605469 38.042969 16.316406 Z M 38.042969 16.316406 "/>
<path style=" stroke:none;fill-rule:nonzero;fill:rgb(0.392157%,34.117648%,60.784316%);fill-opacity:1;" d="M 4 24 C 4 35.023438 12.96875 44 24 44 C 35.03125 44 44 35.023438 44 24 C 44 12.976562 35.03125 4 24 4 C 12.96875 4 4 12.976562 4 24 Z M 5.996094 24 C 5.996094 14.074219 14.070312 6 24 6 C 33.929688 6 42.003906 14.074219 42.003906 24 C 42.003906 33.925781 33.929688 42 24 42 C 14.070312 42 5.996094 33.925781 5.996094 24 Z M 5.996094 24 "/>
</g>
</svg>
