<?xml version="1.0" encoding="UTF-8"?>
<svg xmlns="http://www.w3.org/2000/svg" xmlns:xlink="http://www.w3.org/1999/xlink" width="48px" height="48px" viewBox="0 0 48 48" version="1.1">
<g id="surface1">
<path style=" stroke:none;fill-rule:nonzero;fill:rgb(32.549021%,75.686276%,87.058824%);fill-opacity:1;" d="M 28.019531 23.964844 C 28.019531 21.8125 26.21875 20.066406 24 20.066406 C 21.78125 20.066406 19.980469 21.8125 19.980469 23.964844 C 19.980469 26.117188 21.78125 27.859375 24 27.859375 C 26.21875 27.859375 28.019531 26.117188 28.019531 23.964844 Z M 28.019531 23.964844 "/>
<path style=" stroke:none;fill-rule:evenodd;fill:rgb(32.549021%,75.686276%,87.058824%);fill-opacity:1;" d="M 37.050781 16.730469 C 37.898438 13.386719 38.964844 7.1875 35.207031 5.085938 C 31.464844 2.992188 26.59375 7.003906 24.019531 9.410156 C 21.457031 7.027344 16.449219 3.035156 12.691406 5.140625 C 8.953125 7.242188 10.105469 13.339844 10.972656 16.703125 C 7.484375 17.664062 1.5 19.734375 1.5 23.964844 C 1.5 28.179688 7.476562 30.433594 10.945312 31.394531 C 10.074219 34.777344 8.980469 40.785156 12.726562 42.882812 C 16.496094 44.988281 21.488281 41.089844 24.082031 38.660156 C 26.671875 41.078125 31.496094 45.003906 35.238281 42.902344 C 38.992188 40.792969 38.015625 34.675781 37.148438 31.292969 C 40.511719 30.332031 46.5 28.128906 46.5 23.964844 C 46.5 19.773438 40.484375 17.6875 37.050781 16.730469 Z M 36.625 29.5 C 36.054688 27.753906 35.285156 25.894531 34.34375 23.972656 C 35.242188 22.097656 35.980469 20.261719 36.535156 18.527344 C 39.054688 19.234375 44.578125 20.851562 44.578125 23.964844 C 44.578125 27.105469 39.277344 28.738281 36.625 29.5 Z M 34.273438 41.289062 C 31.480469 42.855469 27.332031 39.105469 25.421875 37.320312 C 26.691406 35.976562 27.957031 34.414062 29.195312 32.675781 C 31.371094 32.492188 33.425781 32.183594 35.289062 31.765625 C 35.898438 34.160156 37.082031 39.714844 34.273438 41.289062 Z M 13.683594 41.265625 C 10.890625 39.703125 12.167969 34.34375 12.808594 31.851562 C 14.652344 32.246094 16.691406 32.53125 18.875 32.703125 C 20.117188 34.398438 21.421875 35.960938 22.738281 37.328125 C 21.113281 38.851562 16.492188 42.835938 13.683594 41.265625 Z M 3.421875 23.964844 C 3.421875 20.8125 8.914062 19.203125 11.488281 18.5 C 12.050781 20.273438 12.789062 22.132812 13.683594 24.007812 C 12.777344 25.914062 12.03125 27.800781 11.460938 29.597656 C 9.003906 28.917969 3.421875 27.117188 3.421875 23.964844 Z M 13.65625 6.753906 C 16.460938 5.179688 20.8125 9.015625 22.675781 10.738281 C 21.367188 12.101562 20.074219 13.652344 18.839844 15.339844 C 16.722656 15.53125 14.699219 15.835938 12.835938 16.246094 C 12.136719 13.53125 10.855469 8.328125 13.65625 6.753906 Z M 30.570312 17.367188 C 32.003906 17.542969 33.378906 17.773438 34.671875 18.0625 C 34.285156 19.265625 33.800781 20.527344 33.230469 21.816406 C 32.40625 20.300781 31.519531 18.8125 30.570312 17.367188 Z M 24.019531 12.070312 C 24.90625 13.003906 25.796875 14.042969 26.667969 15.171875 C 24.898438 15.089844 23.121094 15.089844 21.351562 15.171875 C 22.226562 14.050781 23.121094 13.015625 24.019531 12.070312 Z M 14.785156 21.816406 C 14.226562 20.53125 13.746094 19.261719 13.355469 18.042969 C 14.640625 17.761719 16.007812 17.535156 17.433594 17.363281 C 16.480469 18.804688 15.59375 20.292969 14.785156 21.816406 Z M 17.476562 30.699219 C 16 30.539062 14.613281 30.324219 13.328125 30.050781 C 13.726562 28.808594 14.214844 27.515625 14.785156 26.199219 C 15.609375 27.738281 16.507812 29.242188 17.476562 30.699219 Z M 24.074219 35.988281 C 23.164062 35.035156 22.253906 33.980469 21.367188 32.84375 C 23.148438 32.914062 24.933594 32.914062 26.714844 32.835938 C 25.839844 33.992188 24.957031 35.046875 24.074219 35.988281 Z M 33.25 26.132812 C 33.851562 27.460938 34.359375 28.75 34.761719 29.972656 C 33.457031 30.261719 32.046875 30.492188 30.5625 30.664062 C 31.523438 29.191406 32.421875 27.679688 33.25 26.132812 Z M 28.121094 30.890625 C 25.394531 31.078125 22.652344 31.078125 19.925781 30.90625 C 18.375 28.710938 16.996094 26.40625 15.804688 24.007812 C 16.992188 21.617188 18.359375 19.316406 19.902344 17.125 C 22.632812 16.921875 25.375 16.921875 28.105469 17.125 C 29.632812 19.316406 31 21.613281 32.214844 23.980469 C 31.015625 26.371094 29.640625 28.679688 28.121094 30.890625 Z M 34.246094 6.699219 C 37.050781 8.269531 35.800781 13.839844 35.1875 16.265625 C 33.324219 15.847656 31.296875 15.535156 29.171875 15.34375 C 27.9375 13.636719 26.65625 12.082031 25.367188 10.738281 C 27.253906 8.976562 31.46875 5.144531 34.246094 6.699219 Z M 34.246094 6.699219 "/>
</g>
</svg>
