<?xml version="1.0" encoding="UTF-8"?>
<svg xmlns="http://www.w3.org/2000/svg" xmlns:xlink="http://www.w3.org/1999/xlink" width="46px" height="48px" viewBox="0 0 46 47" version="1.1">
<g id="surface1">
<path style=" stroke:none;fill-rule:nonzero;fill:rgb(100%,17.647059%,12.54902%);fill-opacity:1;" d="M 45.890625 10.722656 C 45.910156 10.785156 45.917969 10.851562 45.917969 10.914062 L 45.917969 20.941406 C 45.917969 21.203125 45.777344 21.445312 45.546875 21.574219 L 37.03125 26.421875 L 37.03125 36.023438 C 37.03125 36.285156 36.890625 36.527344 36.660156 36.660156 L 18.882812 46.773438 C 18.84375 46.796875 18.796875 46.808594 18.753906 46.824219 C 18.738281 46.832031 18.722656 46.839844 18.703125 46.84375 C 18.578125 46.878906 18.449219 46.878906 18.324219 46.84375 C 18.304688 46.839844 18.285156 46.828125 18.265625 46.820312 C 18.226562 46.808594 18.183594 46.792969 18.144531 46.773438 L 0.371094 36.660156 C 0.140625 36.527344 0 36.285156 0 36.023438 L 0 5.945312 C 0 5.878906 0.0078125 5.8125 0.0273438 5.75 C 0.03125 5.730469 0.0429688 5.710938 0.0507812 5.691406 C 0.0664062 5.652344 0.078125 5.613281 0.0976562 5.578125 C 0.113281 5.554688 0.132812 5.535156 0.148438 5.511719 C 0.171875 5.484375 0.191406 5.453125 0.214844 5.425781 C 0.238281 5.40625 0.265625 5.390625 0.289062 5.371094 C 0.316406 5.351562 0.339844 5.328125 0.371094 5.308594 L 9.257812 0.253906 C 9.488281 0.121094 9.769531 0.121094 9.996094 0.253906 L 18.882812 5.308594 L 18.886719 5.308594 C 18.917969 5.328125 18.941406 5.351562 18.96875 5.371094 C 18.992188 5.390625 19.019531 5.40625 19.039062 5.425781 C 19.066406 5.453125 19.085938 5.484375 19.105469 5.511719 C 19.121094 5.535156 19.144531 5.554688 19.15625 5.578125 C 19.179688 5.613281 19.191406 5.652344 19.203125 5.691406 C 19.210938 5.710938 19.226562 5.730469 19.230469 5.753906 C 19.246094 5.816406 19.257812 5.878906 19.257812 5.945312 L 19.257812 24.730469 L 26.660156 20.519531 L 26.660156 10.914062 C 26.660156 10.847656 26.671875 10.785156 26.6875 10.722656 C 26.695312 10.703125 26.707031 10.683594 26.714844 10.660156 C 26.726562 10.621094 26.742188 10.582031 26.761719 10.546875 C 26.777344 10.523438 26.796875 10.503906 26.8125 10.484375 C 26.832031 10.453125 26.851562 10.421875 26.878906 10.398438 C 26.898438 10.378906 26.925781 10.363281 26.949219 10.34375 C 26.976562 10.320312 27.003906 10.296875 27.03125 10.28125 L 35.921875 5.222656 C 36.148438 5.09375 36.429688 5.09375 36.660156 5.222656 L 45.546875 10.28125 C 45.578125 10.296875 45.601562 10.320312 45.628906 10.34375 C 45.652344 10.359375 45.679688 10.378906 45.703125 10.398438 C 45.726562 10.421875 45.746094 10.453125 45.769531 10.484375 C 45.785156 10.503906 45.804688 10.523438 45.816406 10.546875 C 45.839844 10.582031 45.851562 10.621094 45.867188 10.660156 C 45.875 10.683594 45.886719 10.703125 45.890625 10.722656 Z M 44.4375 20.519531 L 44.4375 12.179688 L 41.328125 13.949219 L 37.03125 16.394531 L 37.03125 24.730469 Z M 35.550781 35.601562 L 35.550781 27.257812 L 31.324219 29.644531 L 19.253906 36.449219 L 19.253906 44.871094 Z M 1.480469 7.210938 L 1.480469 35.601562 L 17.773438 44.871094 L 17.773438 36.449219 L 9.261719 31.691406 L 9.257812 31.6875 C 9.226562 31.671875 9.203125 31.648438 9.175781 31.625 C 9.152344 31.609375 9.125 31.59375 9.105469 31.574219 L 9.105469 31.570312 C 9.082031 31.546875 9.0625 31.519531 9.042969 31.492188 C 9.023438 31.46875 9.003906 31.449219 8.988281 31.421875 C 8.96875 31.390625 8.960938 31.359375 8.949219 31.328125 C 8.9375 31.300781 8.921875 31.277344 8.914062 31.246094 C 8.902344 31.210938 8.902344 31.175781 8.898438 31.136719 C 8.894531 31.109375 8.886719 31.082031 8.886719 31.054688 L 8.886719 11.421875 L 4.589844 8.976562 Z M 9.628906 1.730469 L 2.222656 5.945312 L 9.625 10.15625 L 17.03125 5.941406 L 9.625 1.730469 Z M 13.480469 28.019531 L 17.773438 25.574219 L 17.773438 7.210938 L 14.664062 8.980469 L 10.367188 11.421875 L 10.367188 29.789062 Z M 36.289062 6.703125 L 28.886719 10.914062 L 36.289062 15.125 L 43.691406 10.914062 Z M 35.550781 16.394531 L 31.253906 13.949219 L 28.144531 12.179688 L 28.144531 20.519531 L 32.4375 22.960938 L 35.550781 24.730469 Z M 18.515625 35.183594 L 29.375 29.058594 L 34.800781 25.996094 L 27.402344 21.785156 L 18.886719 26.632812 L 11.121094 31.050781 Z M 18.515625 35.183594 "/>
</g>
</svg>
